<?xml version="1.0" encoding="utf-8" ?><svg xmlns="http://www.w3.org/2000/svg" xmlns:xlink="http://www.w3.org/1999/xlink" width="335" height="337" viewBox="0 0 335 337"><clipPath id="cl_3"><rect x="6.1035156e-05" y="-7.6293945e-06" width="334.5918" height="337.42682"/></clipPath><g clip-path="url(#cl_3)"><path fill="#007680" transform="matrix(0.691305 0 0 0.691448 -351.874 -50.4757)" d="M984.064 318.441C984.064 447.41 879.493 551.959 750.498 551.959C621.502 551.959 516.931 447.41 516.931 318.441C516.931 189.473 621.502 84.9233 750.498 84.9233C879.493 84.9233 984.064 189.473 984.064 318.441ZM750.502 105.272C632.743 105.272 537.284 200.715 537.284 318.45C537.284 436.185 632.747 531.624 750.502 531.624C868.257 531.624 963.724 436.181 963.724 318.45C963.724 200.72 868.261 105.272 750.502 105.272Z"/><path fill="#007680" transform="matrix(0.691305 0 0 0.691448 -351.874 -50.4757)" d="M805.824 371.945C818.32 289.053 868.949 252.223 898.189 242.161C851.786 217.284 782.276 238.633 732.745 296.383C676.63 361.808 667.416 449.132 712.167 491.429C717.248 496.231 722.822 500.204 728.766 503.451L733.736 502.099C754.887 496.341 793.164 455.908 805.824 371.945L805.824 371.945Z"/><path fill="#007680" transform="matrix(0.691305 0 0 0.691448 -351.874 -50.4757)" d="M916.876 256.043L912.408 256.272C893.637 257.237 834.914 288.242 821.898 374.615C810.763 448.463 780.386 494.632 752.273 512.042C796.689 521.227 852.888 498.416 894.792 449.56C950.254 384.901 959.865 298.872 916.876 256.043Z"/><path fill="#007680" transform="matrix(0.691305 0 0 0.691448 -351.874 -50.4757)" d="M707.571 163.221C690.431 184.085 683.931 211.328 684.76 224.245C686.729 249.66 703.698 265.634 707.576 295.74C724.716 274.876 731.216 246.422 730.387 233.505C728.413 208.094 711.449 193.327 707.571 163.221L707.571 163.221Z"/><path fill="#007680" transform="matrix(0.691305 0 0 0.691448 -351.874 -50.4757)" d="M701.275 504.13C675.63 479.891 663.975 443.159 668.452 400.704C670.673 379.646 676.815 358.39 686.324 338.001C643.6 299.824 583.009 289.78 555.557 286.498C554.879 293.498 554.531 300.599 554.531 307.785C554.531 407.197 621.137 490.513 709.942 511.337C706.95 509.099 704.029 506.733 701.275 504.13Z"/><path fill="#007680" transform="matrix(0.691305 0 0 0.691448 -351.874 -50.4757)" d="M691.352 320.23C691.933 304.296 690.276 290.67 687.492 281.951C674.418 242.858 641.952 226.985 624.04 181.34C607.266 217.315 605.9 257.576 610.354 279.956C642.432 289.062 669.844 302.652 691.352 320.23Z"/></g></svg>